<svg xmlns="http://www.w3.org/2000/svg" xmlns:xlink="http://www.w3.org/1999/xlink" width="24" height="24" viewBox="0 0 24 24">
    <defs>
        <path id="prefix__a" d="M18 2c.552 0 1 .448 1 1v3h3v12h-3v3c0 .552-.448 1-1 1H5c-.552 0-1-.448-1-1v-3H2V6h2V3c0-.552.448-1 1-1h13zm-1 15H6v3h11v-3zm-1 1v1H7v-1h9zm1-14H6v3h11V4zm-1 1v1H7V5h9zM5 15V9h1.985c.281 0 .56.023.834.069.275.046.52.142.735.288.215.146.389.352.523.62s.2.623.2 1.066c0 .443-.07.799-.211 1.066-.14.268-.322.475-.545.62-.222.147-.469.243-.741.289-.272.046-.537.068-.795.068h-.566V15H5zm1.419-3.146h.616c.167 0 .304-.019.412-.057.107-.038.193-.09.258-.158.064-.067.11-.148.136-.243.026-.095.04-.199.04-.312 0-.114-.014-.218-.04-.312-.026-.095-.072-.176-.136-.244-.065-.067-.15-.12-.258-.158-.108-.038-.245-.056-.412-.056h-.616v1.54zM9.944 15V9h1.74c.392 0 .765.047 1.118.142.354.094.664.255.932.482.267.227.479.531.634.912.155.382.233.856.233 1.423 0 .59-.079 1.08-.237 1.472-.157.392-.37.704-.637.937-.268.232-.578.396-.932.49-.353.095-.723.142-1.11.142H9.944zm1.425-1.305h.395c.272 0 .498-.033.677-.098.179-.065.322-.166.43-.304.107-.138.183-.316.229-.535.045-.219.068-.48.068-.782 0-.276-.023-.517-.068-.722-.046-.205-.123-.376-.233-.51-.11-.136-.256-.236-.437-.3-.182-.066-.409-.098-.68-.098h-.38v3.349zM15.34 15V9H19v1.346h-2.228v1.2h1.555v1.265h-1.555V15h-1.433z"/>
    </defs>
    <g fill="none" fill-rule="evenodd">
        <path d="M0 0H24V24H0z"/>
        <use fill="#3B3B3B" xlink:href="#prefix__a"/>
    </g>
</svg>
